<?xml version="1.0" encoding="UTF-8" standalone="no"?><!DOCTYPE svg PUBLIC "-//W3C//DTD SVG 1.1//EN" "http://www.w3.org/Graphics/SVG/1.1/DTD/svg11.dtd"><svg width="100%" height="100%" viewBox="0 0 1547 956" version="1.1" xmlns="http://www.w3.org/2000/svg" xmlns:xlink="http://www.w3.org/1999/xlink" xml:space="preserve" xmlns:serif="http://www.serif.com/" style="fill-rule:evenodd;clip-rule:evenodd;stroke-linecap:round;stroke-linejoin:round;stroke-miterlimit:10;"><g><clipPath id="_clip1"><path d="M1546.904,-247.434l54.845,1158.095l-1584.544,75.042l-54.846,-1158.095l1584.544,-75.042Z" clip-rule="nonzero"/></clipPath><g clip-path="url(#_clip1)"><g><clipPath id="_clip2"><path d="M-36.829,-171.654l54.772,1156.545l1582.994,-74.968l-54.772,-1156.545l-1582.994,74.969Z" clip-rule="nonzero"/></clipPath><g clip-path="url(#_clip2)"><g opacity="0.34"><path d="M770.277,190.588l128.905,72.8l-186.823,66.338l57.918,-139.138Z" style="fill:none;fill-rule:nonzero;stroke:#aaa;stroke-width:3.38px;"/><path d="M899.182,263.388l-45.903,59.665l-140.92,6.674l174.586,57.558l-33.666,-64.232" style="fill:none;fill-rule:nonzero;stroke:#aaa;stroke-width:3.38px;"/><path d="M887.036,387.28l-32.706,24.932l-141.97,-82.486l141.315,131.721l0.655,-49.235" style="fill:none;fill-rule:nonzero;stroke:#aaa;stroke-width:3.38px;"/><path d="M770.277,190.588l-135.017,56.651l77.099,82.487l-55.786,6.811l-21.313,-89.298l47.424,-52.503l87.593,-4.148Z" style="fill:none;fill-rule:nonzero;stroke:#aaa;stroke-width:3.38px;"/><path d="M635.275,247.54l-32.385,29.88l52.535,59.172l-62.372,-1.216l9.837,-57.957l-41.984,-6.634l32.147,64.59" style="fill:none;fill-rule:nonzero;stroke:#aaa;stroke-width:3.38px;"/><path d="M682.001,194.769l-20.826,-39.068l-25.9,91.838" style="fill:none;fill-rule:nonzero;stroke:#aaa;stroke-width:3.38px;"/><path d="M899.182,263.388l-21.978,-46.25l-106.927,-26.55l125.177,-5.928l-18.249,32.478" style="fill:none;fill-rule:nonzero;stroke:#aaa;stroke-width:3.38px;"/><path d="M712.359,329.726l-22.912,22.293l-34.023,-15.427" style="fill:none;fill-rule:nonzero;stroke:#aaa;stroke-width:3.38px;"/><path d="M655.228,332.432l-34.837,22.857l-27.858,-19.888" style="fill:none;fill-rule:nonzero;stroke:#aaa;stroke-width:3.38px;"/><path d="M560.906,270.786l-33.288,-156.706" style="fill:none;fill-rule:nonzero;stroke:#aaa;stroke-width:3.38px;"/><path d="M560.906,270.786l-54.942,-67.68" style="fill:none;fill-rule:nonzero;stroke:#aaa;stroke-width:3.38px;"/><path d="M560.906,270.786l-131.898,-28.893" style="fill:none;fill-rule:nonzero;stroke:#aaa;stroke-width:3.38px;"/><path d="M560.906,270.786l-99.409,18.619" style="fill:none;fill-rule:nonzero;stroke:#aaa;stroke-width:3.38px;"/><path d="M560.906,270.786l-125.158,113.409" style="fill:none;fill-rule:nonzero;stroke:#aaa;stroke-width:3.38px;"/><path d="M527.618,114.08l-21.654,89.026l-76.956,38.787l32.489,47.512l-25.75,94.79" style="fill:none;fill-rule:nonzero;stroke:#aaa;stroke-width:3.38px;"/><path d="M560.906,270.786l-10.932,54.259l-114.226,59.151" style="fill:none;fill-rule:nonzero;stroke:#aaa;stroke-width:3.38px;"/><path d="M435.747,384.195l23.887,76.601l-98.822,-57.323l93.715,120.627l-105.282,-55.167l36.408,77.222l-82.947,-41.579l6.024,99.512l-57.87,-73.359l-26.02,123.398l83.89,-50.04l76.923,-57.933l68.874,-22.056l5.106,-63.305" style="fill:none;fill-rule:nonzero;stroke:#aaa;stroke-width:3.38px;"/><path d="M435.747,384.195l-75.737,17.48l-10.113,66.228l-45.751,35.561l-52.956,26.689" style="fill:none;fill-rule:nonzero;stroke:#aaa;stroke-width:3.38px;"/><path d="M557.189,382.718l85.909,64.36l-127.78,-21.501l94.11,101.259l-67.143,-13.841l36.931,39.536l-46.502,9.425l123.221,36.761l-218.14,15.878l142.327,28.193l-88.113,11.19l27.071,53.344" style="fill:none;fill-rule:nonzero;stroke:#aaa;stroke-width:3.38px;"/><path d="M519.629,707.471l60.24,-63.967l76.028,-44.648l-77.81,-46.173l31.067,-25.362l34.211,-79.871" style="fill:none;fill-rule:nonzero;stroke:#aaa;stroke-width:3.38px;"/><path d="M557.104,382.107l-41.857,43.323l26.839,87.078l-8.571,49.085l-95.143,53.147l53.843,39.295" style="fill:none;fill-rule:nonzero;stroke:#aaa;stroke-width:3.38px;"/><path d="M870.005,137.567l-90.612,-57.547l129.056,11.588l-101.632,-93.704l68.008,8.625l-39.866,-36.572l45.634,-12.98l-125.684,-27.157l216.269,-32.641l-144.077,-17.141l86.988,-17.946l-31.099,-51.1" style="fill:none;fill-rule:nonzero;stroke:#aaa;stroke-width:3.38px;"/><path d="M882.429,-189.114l-55.128,68.42l-72.367,50.372l81.14,40.041l-29.019,27.68l-27.959,82.269" style="fill:none;fill-rule:nonzero;stroke:#aaa;stroke-width:3.38px;"/><path d="M870.138,138.169l38.391,-46.417l-33.466,-84.751l4.759,-49.602l90.77,-60.32l-56.715,-35.028" style="fill:none;fill-rule:nonzero;stroke:#aaa;stroke-width:3.38px;"/><path d="M1203.466,237.725l65.727,81.815l-127.917,-51.926l128.706,101.38l-173.744,-82.614l191.224,174.238l-249.976,-166.965l113.896,179.009l-104.948,-40.442l28.425,60.366l-59.477,29.995l91.421,-1.664l-138.759,56.734l253.36,-7.238l-168.444,63.194l68.306,9.385l-39.066,15.404l30.712,12.88l-140.787,20.865l122.825,16.73l-48.58,13.7l38.126,19.556" style="fill:none;fill-rule:nonzero;stroke:#aaa;stroke-width:3.38px;"/><path d="M1085.559,742.459l9.916,-33.024l17.878,-37.732l8.232,-28.621l99.584,-72.018l-115.268,-49.779l-31.434,-28.782l76.68,-19.417l137.607,-12.009l-18.299,-91.687l-0.358,-49.66l4.377,-85.726l-70.943,2.671l-62.095,30.546l-44.955,18.821l-58.845,7.296l8.618,138.621l-30.709,90.527l-47.036,54.639l83.426,56.929l31.115,24.327l-110.4,32.987l73.734,30.86l-0.836,27.477l40.012,-7.247Z" style="fill:none;fill-rule:nonzero;stroke:#aaa;stroke-width:3.38px;"/><path d="M1113.205,671.752l26.251,23.322l-43.776,14.396" style="fill:none;fill-rule:nonzero;stroke:#aaa;stroke-width:3.38px;"/><path d="M1045.589,433.274l-27.443,12.43l-3.315,76.029l-23.479,-94.575l26.794,18.546" style="fill:none;fill-rule:nonzero;stroke:#aaa;stroke-width:3.38px;"/><path d="M1203.17,236.28l-24.222,-5.313l-37.296,34.601l-43.12,-4.037l-1.199,23.499" style="fill:none;fill-rule:nonzero;stroke:#aaa;stroke-width:3.38px;"/><path d="M1270.313,319.41l19.398,25.686l-19.804,21.806" style="fill:none;fill-rule:nonzero;stroke:#aaa;stroke-width:3.38px;"/><path d="M967.874,578.051l-25.13,48.645l-15.649,-82.123l-11.175,102.163l-25.698,-125.535l-24.494,139.916l-21.607,-121.139l-38.818,71.379l-1.177,-90.591l-22.792,18.751l6.353,-32.257l-73.791,49.554l-3.58,-29.216l-28.717,10.063l25.935,-45.745l2.781,35.683l77.371,-20.338l16.439,13.507l39.995,19.212l46.101,-18.777l36.872,23.372l40.779,33.478Z" style="fill:none;fill-rule:nonzero;stroke:#aaa;stroke-width:3.38px;"/><path d="M968.208,577.864l-1.274,36.469l-23.093,12.7l-27.07,20.52l-50.277,14.641l-60.952,-50.256l-23.565,-71.793l-68.304,17.541l-32.327,-19.341" style="fill:none;fill-rule:nonzero;stroke:#aaa;stroke-width:3.38px;"/><path d="M865.041,662.763l-71.604,-16.977l47.73,39.486l-52.089,-5.743l43.228,38.741l-58.055,-6.387l47.781,36.206l-41.838,-5.021l14.465,16.122l-14.208,3.999l6.753,10.16l7.455,-14.159l27.373,-11.101l10.274,-29.82l8.861,-32.999l23.874,-22.509Z" style="fill:none;fill-rule:nonzero;stroke:#aaa;stroke-width:3.38px;"/><path d="M805.449,611.673l-12.161,33.697l-4.204,33.691l-15.302,32.226l6.248,31.178l-0.149,20.48" style="fill:none;fill-rule:nonzero;stroke:#aaa;stroke-width:3.38px;"/><path d="M840.867,685.507l12.696,18.221l-20.743,13.788l5.543,18.434l-17.199,11.962" style="fill:none;fill-rule:nonzero;stroke:#aaa;stroke-width:3.38px;"/><path d="M804.881,612.385l-47.286,2.386l36.22,29.916l-30.561,-5.167l-5.66,-24.749" style="fill:none;fill-rule:nonzero;stroke:#aaa;stroke-width:3.38px;"/><path d="M788.514,679.885l-38.954,-21.605l24.004,51.74l-24.94,-16.553l0.936,-35.187" style="fill:none;fill-rule:nonzero;stroke:#aaa;stroke-width:3.38px;"/><path d="M844.563,539.234l-9.359,-69.706l-28.881,50.981l7.292,-42.781l21.589,-8.2" style="fill:none;fill-rule:nonzero;stroke:#aaa;stroke-width:3.38px;"/><path d="M927.81,545.04l-1.714,-32.351l-35.148,7.569" style="fill:none;fill-rule:nonzero;stroke:#aaa;stroke-width:3.38px;"/><path d="M1081.714,82.946l199.834,-78.926" style="fill:none;fill-rule:nonzero;stroke:#aaa;stroke-width:3.38px;"/><path d="M1083.269,82.617l110.599,0.744" style="fill:none;fill-rule:nonzero;stroke:#aaa;stroke-width:3.38px;"/><path d="M1083.706,81.866l155.939,82.758" style="fill:none;fill-rule:nonzero;stroke:#aaa;stroke-width:3.38px;"/><path d="M1083.21,82.558l45.097,82.847" style="fill:none;fill-rule:nonzero;stroke:#aaa;stroke-width:3.38px;"/><path d="M1082.175,83.822l-9.07,130.068" style="fill:none;fill-rule:nonzero;stroke:#aaa;stroke-width:3.38px;"/><path d="M1083.271,83.766l-45.166,40.213" style="fill:none;fill-rule:nonzero;stroke:#aaa;stroke-width:3.38px;"/><path d="M1082.616,83.009l-131.918,11.737" style="fill:none;fill-rule:nonzero;stroke:#aaa;stroke-width:3.38px;"/><path d="M1083.387,82.977l-64.64,-36.545" style="fill:none;fill-rule:nonzero;stroke:#aaa;stroke-width:3.38px;"/><path d="M1084.121,82.74l-78.29,-164.66" style="fill:none;fill-rule:nonzero;stroke:#aaa;stroke-width:3.38px;"/><path d="M1004.168,-82.46l14.465,128.172l-67.376,48.814l86.531,29.941l35.369,90.015l55.503,-47.737l111.423,-1.359l-45.36,-81.988l87.257,-79.186l-37.602,-17.584l-161.249,93.994l147.389,-126.073l13.86,32.079" style="fill:none;fill-rule:nonzero;stroke:#aaa;stroke-width:3.38px;"/><path d="M1229.813,-45.489l-45.855,-27.292l-100.268,152.833l10.271,-91.707l89.998,-61.126" style="fill:none;fill-rule:nonzero;stroke:#aaa;stroke-width:3.38px;"/><path d="M1094.735,-12.653l-33.696,-19.017l21.699,111.944" style="fill:none;fill-rule:nonzero;stroke:#aaa;stroke-width:3.38px;"/><path d="M1037.813,124.681l-84.167,11.111l60.99,33.94l-89.411,37.401l81.031,54.57l-67.634,16.037l58.298,38.017l-91.629,25.935l91.779,19.782l-72.214,19.993l16.906,25.573l-19.192,3.259l4.295,29.689l14.897,-32.949l55.308,-45.566l-0.15,-45.717l9.336,-54.054l8.38,-91.971l23.177,-45.052Z" style="fill:none;fill-rule:nonzero;stroke:#aaa;stroke-width:3.38px;"/><path d="M951.193,94.123l3.512,40.839l-28.975,72.403l12.425,70.033l-32.527,63.806l20.068,40.562l-3.223,27.299" style="fill:none;fill-rule:nonzero;stroke:#aaa;stroke-width:3.38px;"/><path d="M1015.809,169.841l16.942,52.187l-26.632,40.035" style="fill:none;fill-rule:nonzero;stroke:#aaa;stroke-width:3.38px;"/><path d="M937.864,277.02l-33.763,21.313l1.968,44.144" style="fill:none;fill-rule:nonzero;stroke:#aaa;stroke-width:3.38px;"/><path d="M252.203,248.574l160.301,-54.564l-58.316,62.851l-101.985,-8.287Z" style="fill:none;fill-rule:nonzero;stroke:#aaa;stroke-width:3.38px;"/><path d="M253.344,249.24l128.094,69.631l-26.387,-60.778" style="fill:none;fill-rule:nonzero;stroke:#aaa;stroke-width:3.38px;"/><path d="M382.063,320.838l-78.176,5.518l-50.806,-77.02l13.187,142.375l37.619,-65.355" style="fill:none;fill-rule:nonzero;stroke:#aaa;stroke-width:3.38px;"/><path d="M266.274,390.696l-48.733,-80.563l35.004,-60.981l-126.857,61.557l91.853,-0.576" style="fill:none;fill-rule:nonzero;stroke:#aaa;stroke-width:3.38px;"/><path d="M124.945,311.119l58.262,-84.651l69.079,20.78l-79.355,-97.514l10.276,76.735" style="fill:none;fill-rule:nonzero;stroke:#aaa;stroke-width:3.38px;"/><path d="M252.507,249.409l35.488,-64.694l124.328,9.02l-122.567,-42.717l-1.762,33.697" style="fill:none;fill-rule:nonzero;stroke:#aaa;stroke-width:3.38px;"/><path d="M290.099,150.575l37.529,-25.051l84.699,67.56l-66.326,-121.712l-18.374,54.152" style="fill:none;fill-rule:nonzero;stroke:#aaa;stroke-width:3.38px;"/><path d="M174.42,149.316l23.289,-3.163l56.384,102.45l-40.579,-127.067l-15.806,24.616" style="fill:none;fill-rule:nonzero;stroke:#aaa;stroke-width:3.38px;"/><path d="M215.08,120.647l21.942,12.156l17.077,115.495l6.216,-131.273l-23.292,15.777" style="fill:none;fill-rule:nonzero;stroke:#aaa;stroke-width:3.38px;"/><path d="M217.798,310.618l-76.183,22.71l56.078,8.779l-43.459,9.739l37.829,28.154l-64.423,-3.466l81.138,57.233l-96.357,-18.197l17.834,52.438l-96.53,-53.01l78.695,0.572l15.219,-39.036l26.594,-24.688l-12.619,-18.518l-16.87,-22.665" style="fill:none;fill-rule:nonzero;stroke:#aaa;stroke-width:3.38px;"/><path d="M217.277,311.884l-19.918,30.633l-5.186,38.547l17.663,53.499l-78.606,34.217l-7.743,61.943l86.349,-96.16" style="fill:none;fill-rule:nonzero;stroke:#aaa;stroke-width:3.38px;"/><path d="M806.313,-2.083l-110.452,14.989l82.526,65.837l-34.815,6.046l-47.712,-71.883l26.773,107.769l20.939,-35.885" style="fill:none;fill-rule:nonzero;stroke:#aaa;stroke-width:3.38px;"/><path d="M831.222,148.089l-50.032,-41.712l-36.187,18.438l86.219,23.274Z" style="fill:none;fill-rule:nonzero;stroke:#aaa;stroke-width:3.38px;"/><path d="M831.691,149.127l-49.133,19.904l-36.532,-43.66" style="fill:none;fill-rule:nonzero;stroke:#aaa;stroke-width:3.38px;"/><path d="M746.244,125.74l-46.624,32.258l82.783,10.84" style="fill:none;fill-rule:nonzero;stroke:#aaa;stroke-width:3.38px;"/><path d="M576.401,238.939l47.218,-26.497l-56.388,-19.859l57.443,-22.725l-60.579,-29.764l111.941,-31.995l-134.19,-36.376l55.698,-23.442l-59.053,-8.774l34.741,-35.004l-134.754,25.565l87.183,-70.035l47.571,44.47l24.313,43.778l78.491,59.818l-51.362,61.759l-1.054,42.584l-28.899,39.299l-18.319,-12.802Z" style="fill:none;fill-rule:nonzero;stroke:#aaa;stroke-width:3.38px;"/><path d="M567.231,192.583l-3.136,-52.489l-22.491,-68.248l-2.673,-32.067l-99.788,-9.994" style="fill:none;fill-rule:nonzero;stroke:#aaa;stroke-width:3.38px;"/><path d="M576.822,239.048l-8.418,-47.316" style="fill:none;fill-rule:nonzero;stroke:#aaa;stroke-width:3.38px;"/><path d="M573.599,3.712l94.906,-16.574l-71.008,61.042l46.751,-5.34l24.257,-55.702" style="fill:none;fill-rule:nonzero;stroke:#aaa;stroke-width:3.38px;"/><path d="M572.889,2.669l6.888,-41.575l-54.104,0.08" style="fill:none;fill-rule:nonzero;stroke:#aaa;stroke-width:3.38px;"/><path d="M441.249,196.293l53.299,-35.915l-73.361,-3.549l75.366,-34.391l-90.988,-2.108l78.769,-44.148l-99.91,12.173l41.367,-36.536l-57.405,4.316l36.986,-43.591l-56.663,4.116l19.677,39.475l16.038,32.22" style="fill:none;fill-rule:nonzero;stroke:#aaa;stroke-width:3.38px;"/><path d="M405.335,120.554l15.023,36.845l19.331,38.957" style="fill:none;fill-rule:nonzero;stroke:#aaa;stroke-width:3.38px;"/><path d="M494.688,161.179l2.208,-37.943l-11.896,-48.143l-59.097,-22.69l-20.175,-39.069l-20.929,-65.02l-35.92,68.462l-26.269,-61.968l62.189,-6.494" style="fill:none;fill-rule:nonzero;stroke:#aaa;stroke-width:3.38px;"/><path d="M349.032,15.93l-12.111,23.669l32.298,16.076" style="fill:none;fill-rule:nonzero;stroke:#aaa;stroke-width:3.38px;"/><path d="M214.586,119.668l51.061,-101.888l-54.006,39.565l2.945,62.323Z" style="fill:none;fill-rule:nonzero;stroke:#aaa;stroke-width:3.38px;"/><path d="M214.361,121.266l-59.572,-91.624l57.459,27.614" style="fill:none;fill-rule:nonzero;stroke:#aaa;stroke-width:3.38px;"/><path d="M155.845,30.134l-15.92,32.244l73.045,57.828l-112.407,-34.985l39.362,-22.844" style="fill:none;fill-rule:nonzero;stroke:#aaa;stroke-width:3.38px;"/><path d="M100.438,85.848l18.718,46.701l94.079,-10.447" style="fill:none;fill-rule:nonzero;stroke:#aaa;stroke-width:3.38px;"/><path d="M215.968,121.101l74.488,-46.517l-23.046,-56.472" style="fill:none;fill-rule:nonzero;stroke:#aaa;stroke-width:3.38px;"/><path d="M155.894,28.725l6.814,-160.393l-54.357,95.256l47.543,65.137Z" style="fill:none;fill-rule:nonzero;stroke:#aaa;stroke-width:3.38px;"/><path d="M108.352,-36.412l-46.11,2.329l92.891,64.154l-83.563,-5.058l-9.328,-59.096" style="fill:none;fill-rule:nonzero;stroke:#aaa;stroke-width:3.38px;"/><path d="M71.77,24.578l-19.942,22.257l102.157,-14.438l-46.216,27.829l-55.94,-13.392" style="fill:none;fill-rule:nonzero;stroke:#aaa;stroke-width:3.38px;"/><path d="M268.249,17.079l-38.432,-8.903l-17.164,48.562l-13.644,-85.658l30.808,37.096" style="fill:none;fill-rule:nonzero;stroke:#aaa;stroke-width:3.38px;"/><path d="M269.121,17.166l37.664,12.768l-16.207,43.958" style="fill:none;fill-rule:nonzero;stroke:#aaa;stroke-width:3.38px;"/><path d="M327.466,125.361l-27.604,-25.657l-9.786,51.56" style="fill:none;fill-rule:nonzero;stroke:#aaa;stroke-width:3.38px;"/><path d="M120.371,133.03l18.342,91.047l-59.849,27.809l41.506,-118.856Z" style="fill:none;fill-rule:nonzero;stroke:#aaa;stroke-width:3.38px;"/><path d="M120.032,132.844l-43.879,34.939l3.413,83.223l-40.463,-109.509l37.05,26.286" style="fill:none;fill-rule:nonzero;stroke:#aaa;stroke-width:3.38px;"/><path d="M79.785,250.765l-39.504,-0.644l-0.421,-109.468l-45.584,99.957l46.004,9.511l0.435,31.278l-46.439,-40.789" style="fill:none;fill-rule:nonzero;stroke:#aaa;stroke-width:3.38px;"/><path d="M79.585,251.072l26.869,37.295l-44.71,-6.452l45.166,42.637l-58.77,-12.709l47.392,47.596l-79.49,-32.889l39.34,61.679l-45.393,-16.959l6.053,-44.72l32.098,-14.707l13.603,-29.928l17.842,-30.843Z" style="fill:none;fill-rule:nonzero;stroke:#aaa;stroke-width:3.38px;"/><path d="M106.402,289.002l0.577,37.354l-11.814,34.258l-38.996,28.119" style="fill:none;fill-rule:nonzero;stroke:#aaa;stroke-width:3.38px;"/><path d="M83.571,75.37l-16.49,51.102l-13.052,-61.742l-25.882,49.14l-4.165,-63.405l-32.859,46.321l37.024,17.084l38.934,12.602" style="fill:none;fill-rule:nonzero;stroke:#aaa;stroke-width:3.38px;"/><path d="M83.989,75.542l-29.023,-10.553l-31.429,-14.179l-31.712,-10.049" style="fill:none;fill-rule:nonzero;stroke:#aaa;stroke-width:3.38px;"/><path d="M762.433,416.781l-11.965,51.94l-18.305,-75.124l-33.34,61.109l-17.457,-60.914l50.797,-0.195l30.27,23.184Z" style="fill:none;fill-rule:nonzero;stroke:#aaa;stroke-width:3.38px;"/><path d="M750.585,468.096l-51.318,-12.943l-31.672,8.223l13.161,-67.985l-21.433,-10.521l8.272,78.506" style="fill:none;fill-rule:nonzero;stroke:#aaa;stroke-width:3.38px;"/><path d="M919.646,56.617l41.405,-9.057l-54.636,-33.744l83.996,-5.486l-79.483,-29.059l78.892,-15.264l-34.424,-31.433l-44.467,46.697l-4.513,34.544l13.231,42.8Z" style="fill:none;fill-rule:nonzero;stroke:#aaa;stroke-width:3.38px;"/><path d="M960.697,48.638l29.518,-39.519l-0.99,-44.313l0.773,-30.653" style="fill:none;fill-rule:nonzero;stroke:#aaa;stroke-width:3.38px;"/><path d="M910.586,121.154l-19.055,31.645l34.638,-1.721l-15.583,-29.924Z" style="fill:none;fill-rule:nonzero;stroke:#aaa;stroke-width:3.38px;"/><path d="M683.961,51.21l-21.157,10.741l29.205,31.638l-8.048,-42.379Z" style="fill:none;fill-rule:nonzero;stroke:#aaa;stroke-width:3.38px;"/><path d="M517.917,53.191l-22.246,-2.289l15.892,42.062l6.354,-39.773Z" style="fill:none;fill-rule:nonzero;stroke:#aaa;stroke-width:3.38px;"/><path d="M430.4,7.529l29.054,-42.738l-36.872,-2.979l7.818,45.717Z" style="fill:none;fill-rule:nonzero;stroke:#aaa;stroke-width:3.38px;"/><path d="M311.646,6.96l-42.944,-8.632l6.837,-45.091l36.107,53.722Z" style="fill:none;fill-rule:nonzero;stroke:#aaa;stroke-width:3.38px;"/><path d="M41.227,-18.158l2.235,36.419l-69.9,-7.417l67.664,-29.003Z" style="fill:none;fill-rule:nonzero;stroke:#aaa;stroke-width:3.38px;"/><path d="M402.709,245.377l-19.513,11.407l28.776,45.844l-9.263,-57.251Z" style="fill:none;fill-rule:nonzero;stroke:#aaa;stroke-width:3.38px;"/><path d="M411.971,302.629l19.384,-26.242l-27.702,-30.326" style="fill:none;fill-rule:nonzero;stroke:#aaa;stroke-width:3.38px;"/><path d="M1390.087,482.058l-61.299,48.256l33.374,42.492l27.924,-90.749Z" style="fill:none;fill-rule:nonzero;stroke:#aaa;stroke-width:3.38px;"/><path d="M1390.087,482.058l11.518,47.263l-38.085,42.676l67.188,-21.916l-29.102,-20.76" style="fill:none;fill-rule:nonzero;stroke:#aaa;stroke-width:3.38px;"/><path d="M1275.095,233.364l43.693,84.377l26.608,-116.479l55.542,118.616l-2.735,-161.744l81.15,185.534l-5.78,-235.558l96.812,214.961" style="fill:none;fill-rule:nonzero;stroke:#aaa;stroke-width:3.38px;"/><path d="M1546.233,126.62l-73.573,-21.766l-27.228,78.86l-46.743,-25.727l-54.055,44.706l-68.343,31.426" style="fill:none;fill-rule:nonzero;stroke:#aaa;stroke-width:3.38px;"/><path d="M1319.397,317.988l80.626,3.041l78.572,23.044l90.439,-57.79" style="fill:none;fill-rule:nonzero;stroke:#aaa;stroke-width:3.38px;"/><path d="M1446.541,182.756l31.279,157.937" style="fill:none;fill-rule:nonzero;stroke:#aaa;stroke-width:3.38px;"/><path d="M1399.787,157.984l48.44,-132.028l-51.188,44.821l2.748,87.207Z" style="fill:none;fill-rule:nonzero;stroke:#aaa;stroke-width:3.38px;"/><path d="M1397.74,70.81l-39.277,-25.021l39.833,113.815l-64.862,-81.352l25.029,-32.463" style="fill:none;fill-rule:nonzero;stroke:#aaa;stroke-width:3.38px;"/><path d="M1332.366,78.356l-40.925,1.63l103.581,79.238l-82.933,-5.216l-20.649,-74.023" style="fill:none;fill-rule:nonzero;stroke:#aaa;stroke-width:3.38px;"/><path d="M1312.522,153.614l-18.757,22.648l103.9,-15.813" style="fill:none;fill-rule:nonzero;stroke:#aaa;stroke-width:3.38px;"/><path d="M1358.937,46.176l-30.465,-20.869l79.293,-14.685l-66.297,-21.47l90.096,-19.672l-81.04,-73.372l-9.057,93.044l-12.996,36.155" style="fill:none;fill-rule:nonzero;stroke:#aaa;stroke-width:3.38px;"/><path d="M1358.937,46.176l48.829,-35.554l23.726,-40.906l0.739,-72.213l-81.565,-0.939" style="fill:none;fill-rule:nonzero;stroke:#aaa;stroke-width:3.38px;"/><path d="M1247.363,60.382l22.315,22.58l-40.156,10.776l53.702,31.455l-25.418,32.663l-28.284,-64.118l17.84,-33.356Z" style="fill:none;fill-rule:nonzero;stroke:#aaa;stroke-width:3.38px;"/><path d="M1269.737,84.35l13.624,40.703" style="fill:none;fill-rule:nonzero;stroke:#aaa;stroke-width:3.38px;"/><path d="M1346.717,202.423l-51.91,-2.264l-17.549,32.277l-52.243,-38.748l-18.648,43.407" style="fill:none;fill-rule:nonzero;stroke:#aaa;stroke-width:3.38px;"/><path d="M1129.663,166.195l11.012,47.14l98.17,-47.946" style="fill:none;fill-rule:nonzero;stroke:#aaa;stroke-width:3.38px;"/><path d="M1119.202,206.328l10.784,41.957l-47.095,-3.912l36.311,-38.045Z" style="fill:none;fill-rule:nonzero;stroke:#aaa;stroke-width:3.38px;"/><path d="M1033.96,222.8l26.479,19.579l-52.48,16.725l12.885,19.838l39.596,-36.563" style="fill:none;fill-rule:nonzero;stroke:#aaa;stroke-width:3.38px;"/><path d="M1342.773,-11.367l-36.894,9.785l22.933,25.729l-30.061,15.645l59.585,7.447" style="fill:none;fill-rule:nonzero;stroke:#aaa;stroke-width:3.38px;"/><path d="M1449.235,25.888l13.772,37.609l-65.829,95.813" style="fill:none;fill-rule:nonzero;stroke:#aaa;stroke-width:3.38px;"/><path d="M1480.962,81.163l60.09,-17.798l-65.228,-12.781l80.94,-36.491l-100.946,-12.227l82.771,-29.298l-71.916,-13.972l19.251,-53.21l52.666,67.182l18.176,41.525l-15.712,49.273" style="fill:none;fill-rule:nonzero;stroke:#aaa;stroke-width:3.38px;"/><path d="M1480.356,82.045l-5.224,-32.683l-19.997,-47.478l12.237,-42.961" style="fill:none;fill-rule:nonzero;stroke:#aaa;stroke-width:3.38px;"/><path d="M484.501,485.685l-7.831,32.359l37.951,-3.858l-30.12,-28.501Z" style="fill:none;fill-rule:nonzero;stroke:#aaa;stroke-width:3.38px;"/><path d="M477.274,517.872l15.763,18.418l22.67,-21.48" style="fill:none;fill-rule:nonzero;stroke:#aaa;stroke-width:3.38px;"/><path d="M500.918,384.894l-42.644,29.054l32.962,8.898l9.683,-37.952Z" style="fill:none;fill-rule:nonzero;stroke:#aaa;stroke-width:3.38px;"/><path d="M316.313,361.984l10.004,41.955l-35.705,-0.446l22.128,40.227l-48.181,-0.429l26.053,-39.798l25.701,-41.509Z" style="fill:none;fill-rule:nonzero;stroke:#aaa;stroke-width:3.38px;"/><path d="M326.599,405.318l-13.179,38.1l-38.147,39.629l-9.521,-39.285" style="fill:none;fill-rule:nonzero;stroke:#aaa;stroke-width:3.38px;"/><path d="M204.508,505.784l4.815,38.199l-45.617,35.309l40.802,-73.509Z" style="fill:none;fill-rule:nonzero;stroke:#aaa;stroke-width:3.38px;"/><path d="M208.916,544.303l15.759,11.22l-59.207,23.98" style="fill:none;fill-rule:nonzero;stroke:#aaa;stroke-width:3.38px;"/><path d="M1267.571,645.938l21.347,49.32l-77.581,1.348l56.235,-50.668Z" style="fill:none;fill-rule:nonzero;stroke:#aaa;stroke-width:3.38px;"/><path d="M1288.125,696.324l-23.335,21.851l-53.387,-20.159l47.7,47.334l5.688,-27.175" style="fill:none;fill-rule:nonzero;stroke:#aaa;stroke-width:3.38px;"/><path d="M674.082,641.326l33.738,34.437l-69.945,-2.711l36.208,-31.726Z" style="fill:none;fill-rule:nonzero;stroke:#aaa;stroke-width:3.38px;"/><path d="M708.84,676.631l-32.054,24.376l-38.139,-28.114l8.926,-33.184l26.692,2.216" style="fill:none;fill-rule:nonzero;stroke:#aaa;stroke-width:3.38px;"/><path d="M639.019,672.921l-19.17,38.517l-31.847,-27.762l51.017,-10.755Z" style="fill:none;fill-rule:nonzero;stroke:#aaa;stroke-width:3.38px;"/><path d="M638.819,673.148l4.955,22.869l-22.464,15.356" style="fill:none;fill-rule:nonzero;stroke:#aaa;stroke-width:3.38px;"/><path d="M748.739,588.205l-46.945,-8.582l10.724,57.081l36.221,-48.499Z" style="fill:none;fill-rule:nonzero;stroke:#aaa;stroke-width:3.38px;"/><path d="M471.941,664.737l-50.051,4.42l22.314,15.6l27.738,-20.02Z" style="fill:none;fill-rule:nonzero;stroke:#aaa;stroke-width:3.38px;"/><path d="M472.243,665.139l-22.06,50.833l-5.923,-30.899" style="fill:none;fill-rule:nonzero;stroke:#aaa;stroke-width:3.38px;"/><path d="M384.675,547.571l-10.074,40.545l-65.238,15.913l82.445,9.454l-17.207,-25.366" style="fill:none;fill-rule:nonzero;stroke:#aaa;stroke-width:3.38px;"/><path d="M392.14,614.94l-24.651,23.603l-57.131,-35.4" style="fill:none;fill-rule:nonzero;stroke:#aaa;stroke-width:3.38px;"/><path d="M305.627,666.394l13.632,26.945l-40.917,-8.72l27.285,-18.225Z" style="fill:none;fill-rule:nonzero;stroke:#aaa;stroke-width:3.38px;"/><path d="M86.06,634.521l3.658,35.18l-20.718,-3.888l17.06,-31.292Z" style="fill:none;fill-rule:nonzero;stroke:#aaa;stroke-width:3.38px;"/><path d="M105.619,476.531l-28.109,-6.266l6.633,17.983l21.475,-11.717Z" style="fill:none;fill-rule:nonzero;stroke:#aaa;stroke-width:3.38px;"/><path d="M186.778,706.225l10.221,35.138l-31.348,2.586l21.127,-37.724Z" style="fill:none;fill-rule:nonzero;stroke:#aaa;stroke-width:3.38px;"/><path d="M217.468,886.033l-31.042,11.617l15.065,-20.193l15.978,8.576Z" style="fill:none;fill-rule:nonzero;stroke:#aaa;stroke-width:3.38px;"/><path d="M436.829,383.186l-33.028,-34.96l-43.383,53.497" style="fill:none;fill-rule:nonzero;stroke:#aaa;stroke-width:3.38px;"/><path d="M327.508,404.625l39.312,-47.152l-49.235,3.42" style="fill:none;fill-rule:nonzero;stroke:#aaa;stroke-width:3.38px;"/><path d="M17.818,684.25l49.863,37.944l-43.273,21.473l-6.591,-59.417Z" style="fill:none;fill-rule:nonzero;stroke:#aaa;stroke-width:3.38px;"/><path d="M49.626,465.74l19.867,46.773l-68.292,-11.128l48.425,-35.645Z" style="fill:none;fill-rule:nonzero;stroke:#aaa;stroke-width:3.38px;"/><path d="M69.438,513.856l-16.191,19.893l-50.608,-31.239" style="fill:none;fill-rule:nonzero;stroke:#aaa;stroke-width:3.38px;"/><path d="M91.943,570.613l10.504,18.818l-23.669,-0.534l13.164,-18.284Z" style="fill:none;fill-rule:nonzero;stroke:#aaa;stroke-width:3.38px;"/><path d="M112.568,569.468l-10.12,19.962l25.474,4.701l-15.354,-24.664Z" style="fill:none;fill-rule:nonzero;stroke:#aaa;stroke-width:3.38px;"/><path d="M112.738,570.971l-19.313,0.198" style="fill:none;fill-rule:nonzero;stroke:#aaa;stroke-width:3.38px;"/><path d="M966.219,472.869l11.577,23.164l-30.097,-12.213l12.872,25.044l17.224,-12.831" style="fill:none;fill-rule:nonzero;stroke:#aaa;stroke-width:3.38px;"/><path d="M966.06,472.743l-16.928,10.669" style="fill:none;fill-rule:nonzero;stroke:#aaa;stroke-width:3.38px;"/><path d="M888.832,416.944l6.711,23.611l-22.167,-2.605l15.456,-21.005Z" style="fill:none;fill-rule:nonzero;stroke:#aaa;stroke-width:3.38px;"/><path d="M1119.617,205.7l-22.862,10.642l-12.041,26.052" style="fill:none;fill-rule:nonzero;stroke:#aaa;stroke-width:3.38px;"/><path d="M1279.736,189.935l-7.82,17.597l-17.834,-22.857l25.654,5.26Z" style="fill:none;fill-rule:nonzero;stroke:#aaa;stroke-width:3.38px;"/><path d="M1345.963,348.109l-30.963,-8.338l22.144,35.798l8.819,-27.46Z" style="fill:none;fill-rule:nonzero;stroke:#aaa;stroke-width:3.38px;"/><path d="M1435.721,398.991l-26.169,-28.762l-12.074,36.645l38.243,-7.883Z" style="fill:none;fill-rule:nonzero;stroke:#aaa;stroke-width:3.38px;"/><path d="M1430.752,418.825l-14.169,19.892l25.341,7.59l-11.172,-27.482Z" style="fill:none;fill-rule:nonzero;stroke:#aaa;stroke-width:3.38px;"/><path d="M1358.142,589.685l4.287,20.277l-27.872,0.264l23.586,-20.541Z" style="fill:none;fill-rule:nonzero;stroke:#aaa;stroke-width:3.38px;"/><path d="M1199.717,494.914l-53.6,6.816l42.226,34.049l11.374,-40.865Z" style="fill:none;fill-rule:nonzero;stroke:#aaa;stroke-width:3.38px;"/><path d="M1200.893,495.39l10.731,22.602l-22.56,18.054l37.197,-2.856l-14.638,-15.198" style="fill:none;fill-rule:nonzero;stroke:#aaa;stroke-width:3.38px;"/><path d="M1171.519,645.489l-31.464,20.511l29.743,1.631l1.722,-22.142Z" style="fill:none;fill-rule:nonzero;stroke:#aaa;stroke-width:3.38px;"/><path d="M925.354,762.397l11.871,42.888l-52.036,3.58l40.165,-46.468Z" style="fill:none;fill-rule:nonzero;stroke:#aaa;stroke-width:3.38px;"/><path d="M1005.099,916.552l-15.179,20.559l-12.478,-27.864l27.657,7.305Z" style="fill:none;fill-rule:nonzero;stroke:#aaa;stroke-width:3.38px;"/><path d="M1044.374,844.647l-42.008,22.777l3.851,-55.756l38.156,32.979Z" style="fill:none;fill-rule:nonzero;stroke:#aaa;stroke-width:3.38px;"/><path d="M1006.304,811.423l-12.651,10.949l9.015,44.272" style="fill:none;fill-rule:nonzero;stroke:#aaa;stroke-width:3.38px;"/><path d="M937.061,805.961l-16.119,19.928l-35.009,-16.737" style="fill:none;fill-rule:nonzero;stroke:#aaa;stroke-width:3.38px;"/><path d="M924.529,852.87l-6.593,-9.811l-5.726,11.146l12.319,-1.335Z" style="fill:none;fill-rule:nonzero;stroke:#aaa;stroke-width:3.38px;"/><path d="M1006.702,649.66l-7.571,-4.986l-2.986,11.992l10.557,-7.006Z" style="fill:none;fill-rule:nonzero;stroke:#aaa;stroke-width:3.38px;"/><path d="M888.809,452.06l-10.319,-0.886l4.933,11.467l5.386,-10.581Z" style="fill:none;fill-rule:nonzero;stroke:#aaa;stroke-width:3.38px;"/><path d="M785.786,479.283l-4.413,-12.89l-10.829,16.544l15.242,-3.653Z" style="fill:none;fill-rule:nonzero;stroke:#aaa;stroke-width:3.38px;"/><path d="M774.991,577.651l0.636,12.545l-11.936,-10.74l11.3,-1.805Z" style="fill:none;fill-rule:nonzero;stroke:#aaa;stroke-width:3.38px;"/><path d="M690.974,560.926l-9.58,-7.381l-4.344,17.216l13.924,-9.834Z" style="fill:none;fill-rule:nonzero;stroke:#aaa;stroke-width:3.38px;"/><path d="M608.07,544.715l-8.499,8.944l16.132,5.389l-7.633,-14.333Z" style="fill:none;fill-rule:nonzero;stroke:#aaa;stroke-width:3.38px;"/><path d="M520.962,554.503l-4.375,-11.203l-14.263,19.812l18.638,-8.609Z" style="fill:none;fill-rule:nonzero;stroke:#aaa;stroke-width:3.38px;"/><path d="M408.837,552.713l-13.195,-0.984l2.361,14.698l10.834,-13.714Z" style="fill:none;fill-rule:nonzero;stroke:#aaa;stroke-width:3.38px;"/><path d="M315.357,629.78l-6.502,-12.186l-9.881,15.949l16.383,-3.763Z" style="fill:none;fill-rule:nonzero;stroke:#aaa;stroke-width:3.38px;"/><path d="M122.17,612.817l-9.583,-6.615l-4.47,14.738l14.053,-8.123Z" style="fill:none;fill-rule:nonzero;stroke:#aaa;stroke-width:3.38px;"/><path d="M222.744,581.355l-13.611,3.635l13.575,8.987l0.036,-12.622Z" style="fill:none;fill-rule:nonzero;stroke:#aaa;stroke-width:3.38px;"/><path d="M177.172,821.612l-7.944,-6.389l-3.8,15.224l11.744,-8.836Z" style="fill:none;fill-rule:nonzero;stroke:#aaa;stroke-width:3.38px;"/><path d="M230.485,369.463l-8.523,-13.787l-4.799,11.172l13.322,2.615Z" style="fill:none;fill-rule:nonzero;stroke:#aaa;stroke-width:3.38px;"/><path d="M261.194,406.929l-5.789,-9.037l-3.483,13.443l9.273,-4.406Z" style="fill:none;fill-rule:nonzero;stroke:#aaa;stroke-width:3.38px;"/><path d="M127.569,250.006l-13.668,1.987l9.515,13.167l4.153,-15.153Z" style="fill:none;fill-rule:nonzero;stroke:#aaa;stroke-width:3.38px;"/><path d="M150.711,153.262l4.366,23.123l-16.031,-13.723l11.666,-9.4Z" style="fill:none;fill-rule:nonzero;stroke:#aaa;stroke-width:3.38px;"/><path d="M713.875,349.62l6.391,8.585l-15.242,2.107l8.85,-10.692Z" style="fill:none;fill-rule:nonzero;stroke:#aaa;stroke-width:3.38px;"/><path d="M702.488,124.386l2.958,9.205l-16.14,2.342l13.182,-11.547Z" style="fill:none;fill-rule:nonzero;stroke:#aaa;stroke-width:3.38px;"/><path d="M695.128,175.266l8.116,9.994l9.727,-12.854l-17.844,2.86Z" style="fill:none;fill-rule:nonzero;stroke:#aaa;stroke-width:3.38px;"/><path d="M525.59,78.426l-4.182,11.851l17.712,2.925l-13.53,-14.776Z" style="fill:none;fill-rule:nonzero;stroke:#aaa;stroke-width:3.38px;"/><path d="M403.574,99.544l-15.569,1.763l2.851,11.083l12.718,-12.846Z" style="fill:none;fill-rule:nonzero;stroke:#aaa;stroke-width:3.38px;"/><path d="M325.729,82.459l-5.333,12.159l-7.478,-16.115l12.811,3.956Z" style="fill:none;fill-rule:nonzero;stroke:#aaa;stroke-width:3.38px;"/><path d="M335.059,70.379l-6.249,-16.441l16.253,2.102l-10.003,14.339Z" style="fill:none;fill-rule:nonzero;stroke:#aaa;stroke-width:3.38px;"/><path d="M159.276,185.83l9.187,12.65l-26.678,-4.882l17.492,-7.768Z" style="fill:none;fill-rule:nonzero;stroke:#aaa;stroke-width:3.38px;"/><path d="M99.399,123.01l-5.381,-16.593l-7.232,15.15l12.613,1.443Z" style="fill:none;fill-rule:nonzero;stroke:#aaa;stroke-width:3.38px;"/><path d="M135.381,349.339l-8.676,-8.323l-5.673,13.526l14.349,-5.202Z" style="fill:none;fill-rule:nonzero;stroke:#aaa;stroke-width:3.38px;"/><path d="M264.891,443.258l-41.102,23.847l51.812,15.658" style="fill:none;fill-rule:nonzero;stroke:#aaa;stroke-width:3.38px;"/><path d="M241.312,502.204l-14.03,-14.492l-0.119,29.136l14.149,-14.644Z" style="fill:none;fill-rule:nonzero;stroke:#aaa;stroke-width:3.38px;"/><path d="M241.759,502.075l17.204,6.321l-31.151,8.258" style="fill:none;fill-rule:nonzero;stroke:#aaa;stroke-width:3.38px;"/><path d="M573.074,343.004l5.909,12.354l-21.261,1.521l15.353,-13.875Z" style="fill:none;fill-rule:nonzero;stroke:#aaa;stroke-width:3.38px;"/><path d="M871.147,158.143l-14.062,-6.729l-3.788,21.051l17.85,-14.323Z" style="fill:none;fill-rule:nonzero;stroke:#aaa;stroke-width:3.38px;"/><path d="M914.803,229.908l0.44,-15.086l-16.688,4.648l16.249,10.438Z" style="fill:none;fill-rule:nonzero;stroke:#aaa;stroke-width:3.38px;"/><path d="M1003.843,37.265l-3.625,-14.277l-9.843,17.716l13.468,-3.439Z" style="fill:none;fill-rule:nonzero;stroke:#aaa;stroke-width:3.38px;"/><path d="M1322.794,58.381l-12.491,-5.097l2.531,14.527l9.96,-9.429Z" style="fill:none;fill-rule:nonzero;stroke:#aaa;stroke-width:3.38px;"/><path d="M1404.523,39.503l16.964,-4.523l-2.509,-16.264l-14.455,20.787Z" style="fill:none;fill-rule:nonzero;stroke:#aaa;stroke-width:3.38px;"/><path d="M1417.542,152.649l16.663,5.605l6.662,-19.687l-23.325,14.082Z" style="fill:none;fill-rule:nonzero;stroke:#aaa;stroke-width:3.38px;"/><path d="M1394.563,332.169l-10.502,-0.769l6.923,23.72l3.579,-22.951Z" style="fill:none;fill-rule:nonzero;stroke:#aaa;stroke-width:3.38px;"/><path d="M1395.97,332.928l18.604,13.715l-22.954,9.954" style="fill:none;fill-rule:nonzero;stroke:#aaa;stroke-width:3.38px;"/><path d="M1501.233,382.237l-11.9,-14.844l-13.546,14.493l25.446,0.351Z" style="fill:none;fill-rule:nonzero;stroke:#aaa;stroke-width:3.38px;"/><path d="M1502.392,382.64l-7.889,10.245l-17.523,-10.692" style="fill:none;fill-rule:nonzero;stroke:#aaa;stroke-width:3.38px;"/><path d="M1287.447,731.793l-6.416,-1.053l2.118,12.153l4.298,-11.099Z" style="fill:none;fill-rule:nonzero;stroke:#aaa;stroke-width:3.38px;"/><path d="M1038.88,884.843l-3.405,-6.967l-7.613,8.818l11.018,-1.851Z" style="fill:none;fill-rule:nonzero;stroke:#aaa;stroke-width:3.38px;"/><path d="M1165.127,678.384l-10.677,5.074l10.182,7.308l0.494,-12.381Z" style="fill:none;fill-rule:nonzero;stroke:#aaa;stroke-width:3.38px;"/><path d="M104.277,780.194l19.42,25.066l-42.309,-2.802l22.889,-22.263Z" style="fill:none;fill-rule:nonzero;stroke:#aaa;stroke-width:3.38px;"/><path d="M124.022,806.272l-20.215,21.504l-23.975,-24.486" style="fill:none;fill-rule:nonzero;stroke:#aaa;stroke-width:3.38px;"/><path d="M278.972,684.597l20.266,17.782l20.371,-8.177" style="fill:none;fill-rule:nonzero;stroke:#aaa;stroke-width:3.38px;"/></g></g></g></g></g></svg>