<?xml version="1.0" encoding="UTF-8" standalone="no"?>
<!DOCTYPE svg PUBLIC "-//W3C//DTD SVG 1.1//EN" "http://www.w3.org/Graphics/SVG/1.1/DTD/svg11.dtd">
<svg width="100%" height="100%" viewBox="0 0 1917 1753" version="1.1" xmlns="http://www.w3.org/2000/svg" xmlns:xlink="http://www.w3.org/1999/xlink" xml:space="preserve" xmlns:serif="http://www.serif.com/" style="fill-rule:evenodd;clip-rule:evenodd;stroke-linejoin:round;stroke-miterlimit:2;">
    <g transform="matrix(1,0,0,1,-270.721888,-388.599238)">
        <g id="Combined" transform="matrix(1,0,0,1,-12.814319,20.985692)">
            <path d="M708.616,1721.581C735.668,1759.754 751.574,1806.371 751.574,1856.675C751.574,1985.833 646.713,2090.693 517.555,2090.693C388.397,2090.693 283.536,1985.833 283.536,1856.675C283.536,1727.516 388.397,1622.656 517.555,1622.656C524.797,1622.656 531.963,1622.985 539.039,1623.631L795.056,1180.195L1051.093,736.726C1024.041,698.553 1008.135,651.936 1008.135,601.632C1008.135,472.474 1112.995,367.614 1242.154,367.614C1371.312,367.614 1476.173,472.474 1476.173,601.632C1476.173,651.936 1460.267,698.553 1433.214,736.726L1689.252,1180.195L1945.237,1623.575C1952.11,1622.966 1959.067,1622.656 1966.096,1622.656C2095.255,1622.656 2200.115,1727.516 2200.115,1856.675C2200.115,1985.833 2095.255,2090.693 1966.096,2090.693C1871.888,2090.693 1790.607,2034.905 1753.516,1954.591L1225.46,1954.591L1225.46,2120.365L817.416,1856.675L1225.46,1592.984L1225.46,1758.758L1753.516,1758.758C1759.649,1745.478 1766.99,1732.869 1775.398,1721.072L1519.655,1278.112L1263.637,834.676C1256.562,835.321 1249.396,835.651 1242.154,835.651C1234.912,835.651 1227.746,835.321 1220.67,834.676L964.653,1278.112L708.616,1721.581ZM1242.154,525.351C1200.053,525.351 1165.873,559.532 1165.873,601.632C1165.873,643.733 1200.053,677.913 1242.154,677.913C1284.255,677.913 1318.435,643.733 1318.435,601.632C1318.435,559.532 1284.255,525.351 1242.154,525.351ZM517.555,1780.394C475.454,1780.394 441.274,1814.574 441.274,1856.675C441.274,1898.775 475.454,1932.956 517.555,1932.956C559.656,1932.956 593.836,1898.775 593.836,1856.675C593.836,1814.574 559.656,1780.394 517.555,1780.394ZM1966.753,1780.394C1924.652,1780.394 1890.472,1814.574 1890.472,1856.675C1890.472,1898.775 1924.652,1932.956 1966.753,1932.956C2008.854,1932.956 2043.034,1898.775 2043.034,1856.675C2043.034,1814.574 2008.854,1780.394 1966.753,1780.394Z"/>
        </g>
    </g>
</svg>
