<?xml version="1.0" encoding="UTF-8" standalone="no"?>
<!DOCTYPE svg PUBLIC "-//W3C//DTD SVG 1.1//EN" "http://www.w3.org/Graphics/SVG/1.1/DTD/svg11.dtd">
<svg width="100%" height="100%" viewBox="0 0 385 482" version="1.1" xmlns="http://www.w3.org/2000/svg" xmlns:xlink="http://www.w3.org/1999/xlink" xml:space="preserve" xmlns:serif="http://www.serif.com/" style="fill-rule:evenodd;clip-rule:evenodd;stroke-linejoin:round;stroke-miterlimit:2;">
    <g transform="matrix(1.333333,0,0,1.333333,-0,0)">
        <g id="Artboard1" transform="matrix(0.663315,0,0,0.95672,24.481817,28.771415)">
            <rect x="-36.908" y="-30.073" width="434.483" height="377.813" style="fill:none;"/>
            <g id="Layer-1" serif:id="Layer 1" transform="matrix(-0,-1.045238,1.50758,-0,-55.673965,355.294683)">
                <g>
                    <path d="M98.904,134.718C98.516,132.159 91.401,136.587 88.475,138.929C67.308,155.873 54.823,179.753 48.215,205.387C47.102,209.705 47.567,214.614 48.167,219.135C48.707,223.203 52.005,224.386 55.197,221.977C59.253,218.917 63.403,215.596 66.378,211.552C83.263,188.594 99.458,138.362 98.904,134.718ZM127.069,112.31C157.401,110.462 187.397,108.635 217.342,106.81C221.439,70.016 223.881,49.03 227.508,34.116C227.937,33.125 231.091,32.878 230.888,35.459C230.83,36.201 226.972,90.589 225.523,106.544C243.709,105.85 257.959,105.178 275.211,104.534C294.52,103.813 313.829,103.054 333.141,102.442C340.23,102.216 345.209,107.056 345.107,113.643C345.006,120.271 340.127,124.469 332.738,124.314C297.926,123.579 263.115,122.848 228.304,122.123C226.508,122.086 227.71,122.119 225.099,122.119C225.099,127.263 222.152,172.043 222.111,176.822C221.912,200.12 223.72,221.42 224.595,263.718C224.711,269.276 222.079,272.963 217.342,273.197C212.546,273.433 209.07,270.139 209.143,264.601C209.41,244.444 209.482,224.27 210.427,204.139C211.521,180.856 213.449,157.612 215.043,134.353C215.312,130.416 215.722,126.489 216.134,121.8L127.188,121.8C126.09,125.342 126.711,141.516 127.114,146.593C129.922,181.923 132.877,217.241 135.813,252.562C136.13,256.372 136.817,260.158 136.99,263.972C137.283,270.432 133.075,275.172 127.1,275.463C121.155,275.752 116.694,271.44 116.005,265.004C111.64,224.202 110.132,183.289 111.072,142.276C111.102,140.987 111.076,139.697 110.558,138.348C107.014,148.454 103.751,158.671 99.865,168.645C92.835,186.69 84.632,204.202 71.649,218.854C67.869,223.119 63.112,226.906 58.099,229.604C49.725,234.11 41.729,229.973 39.103,220.785C36.988,213.384 38.35,206.163 40.571,199.172C48.085,175.513 60.414,154.835 79.831,138.978C84.408,135.24 89.775,132.277 95.162,129.789C98.962,128.035 100.65,125.913 99.971,121.231C74.99,121.286 25.704,123.615 24.927,118.95C24.508,116.43 51.942,116.78 65.94,116.012C76.412,115.437 87.862,115.451 98.334,114.883C101.592,114.706 102.536,113.033 102.952,110.255C105.903,90.53 108.829,70.802 111.959,51.105C112.712,46.367 114.027,41.695 115.395,37.084C116.594,33.04 119.469,30.925 123.78,31.996C127.905,33.022 129.054,36.303 128.799,40.124C128.29,47.757 127.31,55.372 127.128,63.01C126.773,77.833 126.825,92.667 126.739,107.496C126.73,108.947 126.932,110.399 127.069,112.31"/>
                    <path d="M250.469,223.225C252.629,219.769 254.252,218.516 255.864,214.822C261.711,201.407 267.169,187.823 272.887,174.351C274.637,170.225 276.293,165.926 278.86,162.327C280.465,160.076 283.6,158.014 286.23,157.762C287.616,157.628 290.401,161.378 290.811,163.685C292.235,171.691 293.016,179.821 293.82,187.926C295.135,201.173 296.239,214.442 297.516,227.693C297.858,231.233 296.681,233.791 293.08,234.262C289.224,234.765 287.176,232.553 286.994,228.726C286.248,213.093 285.547,197.457 284.799,181.824C284.657,178.853 284.371,175.889 283.205,172.68C280.612,178.362 278.055,184.061 275.416,189.722C271.34,198.465 267.379,207.269 263.024,215.872C261.01,219.852 258.34,223.538 255.671,227.135C253.512,230.047 250.258,232.81 246.789,230.875C244.165,229.412 241.325,225.896 241.078,223.076C240.373,215.014 240.218,206.756 241.162,198.73C242.946,183.579 245.578,168.524 248.055,153.461C248.397,151.384 249.072,148.422 249.813,147.517C250.184,147.062 251.936,147.857 252.498,148.027C253.06,148.197 245.398,199.313 248.004,222.651C248.251,223.834 249.251,224.251 250.469,223.225"/>
                    <g transform="matrix(1,0,0,1,-4,0)">
                        <path d="M193.379,156.549C193.04,150.547 188.057,145.069 181.461,144.751C173.798,144.381 171.503,147.738 167.954,153.812C163.215,161.923 160.139,171.428 157.879,180.534C156.059,187.866 153.703,195.595 155.129,203.18C155.47,204.992 156.14,207.417 157.325,207.892C158.509,208.366 161.126,206.405 162.236,205.026C165.348,201.163 167.399,198.163 169.82,193.851C175.51,183.715 176.441,181.5 183.306,172.118C188.609,164.871 193.562,159.802 193.379,156.549ZM194.546,167.129C192.346,170.923 188.262,177.591 186.227,181.161C182.486,187.723 180.909,190.953 177.079,197.024C173.736,202.322 169.68,207.252 165.416,211.858C162.724,214.766 158.609,217.533 154.795,214.931C152.029,213.044 149.797,209.256 148.99,205.914C148.051,202.025 148.464,197.625 149.096,193.573C151.308,179.379 155.095,165.61 162.248,153.027C165.566,147.19 169.609,141.72 176.678,140.065C189.585,137.041 200.923,148.559 201.023,162.17C201.152,179.918 203.215,197.652 204.479,215.389C204.711,218.665 207.17,223.123 202.168,224.21C196.563,225.429 196.883,220.152 196.647,216.828C195.741,204.076 195.18,191.299 194.57,178.528C194.412,175.215 194.546,171.889 194.546,167.129"/>
                    </g>
                </g>
            </g>
        </g>
    </g>
</svg>
